<svg xmlns="http://www.w3.org/2000/svg" viewBox="0 0 396 354"><defs><style>.cls-1{fill:none;}.cls-2{fill:#433b6b;}.cls-3{fill:#8c65c4;}.cls-4{fill:#feaf2e;}.cls-5{fill:#00d16a;}.cls-6{fill:#fbd43f;}.cls-7{fill:#f8c13c;}.cls-8{fill:#321b41;}.cls-9{fill:#00a5ec;}.cls-10{fill:#f3f3f3;}.cls-11{fill:#f7312f;}</style></defs><g id="Layer_2" data-name="Layer 2"><g id="Layer_1-2" data-name="Layer 1"><path class="cls-1" d="M198,353.9q-97,0-193.91.1C.67,354,0,353.33,0,349.91Q.17,177,0,4.09C0,.67.67,0,4.09,0Q198,.17,391.91,0c3.42,0,4.09.67,4.09,4.09q-.17,172.91,0,345.82c0,3.42-.67,4.1-4.09,4.09Q294.95,353.81,198,353.9Z"/><path class="cls-2" d="M355.78,176.08c0,40.62.26,81.24,0,121.85-.08,14.61-10.38,24.23-24.87,24.24-88.07,0-176.14-.11-264.21.13-13.71,0-24.58-10.67-24.62-22.91-.13-40.79,0-81.57.06-122.36,2.61.33,3.18,2.71,4.28,4.45,4.64,7.35,11,11,19.92,11q132.14-.12,264.27,0c9.76,0,16.94-4,21.6-12.6C353.07,178.34,353.47,176.28,355.78,176.08Z"/><path class="cls-3" d="M355.78,176.08c-2.84,6.47-6.2,12.46-13,15.61a22.57,22.57,0,0,1-9.58,2.39q-134.33,0-268.65,0c-8.43,0-14.49-4.18-19-11-1.25-1.92-2.26-4-3.38-6,0-37.07-.26-74.14,0-111.21C42.25,53,53,43.05,65.81,43c8.81,0,17.62.11,26.43.17a2.48,2.48,0,0,1-1.59,2.31A29.05,29.05,0,0,0,78.32,58.07a5.5,5.5,0,0,1-3.68,3.12c-2.64.58-5.31.36-8,.46-3.72.15-5.77,2.17-6.6,5.64a30,30,0,0,0-.48,6.95V163c0,1.32,0,2.66.09,4,.48,6.21,2.55,8.21,8.73,8.47,2.16.09,4.32-.07,6.48.11.64,0,1.27,0,1.91,0a18.84,18.84,0,0,1,3-.14H317.6a23.78,23.78,0,0,1,3.48.13c.63,0,1.26,0,1.89,0,2.81-.24,5.64,0,8.46-.22,3.71-.33,5.78-2.2,5.88-6,0-1.5.08-3,.08-4.48q0-46.34,0-92.67c0-1.5,0-3-.09-4.49-.18-3.78-2.1-5.76-5.92-6-2.65-.14-5.32.07-7.95-.33a4.93,4.93,0,0,1-3.83-2.8c-2.89-5.75-6.89-10.43-12.72-13.39a2.34,2.34,0,0,1-1.28-2c9.47-.05,19-.35,28.41-.08S353.17,52,355,61.47a37.77,37.77,0,0,1,.88,6.91Q355.89,122.23,355.78,176.08Z"/><path class="cls-4" d="M305.59,43.17a28.84,28.84,0,0,1,16,16.81c1.72,1.2,1.81,3.06,1.95,4.89.62,8.79,1.16,17.56,1.11,26.38-.14,25.94,0,51.87-.08,77.81,0,2.75.59,5.74-1.94,7.92a3.87,3.87,0,0,1-.72-.2c-1.69-1.74-1.47-4-1.48-6.09-.06-6.78-.08-13.57,0-20.35.11-13.64.22-27.3-.08-40.94-.2-9.13-7.49-17.45-16.55-19.58a51.56,51.56,0,0,0-11.89-1.27q-25.73.06-51.45,0c-2.48,0-5,.31-7.32-1-2.07-2.2-1.45-5-1.59-7.58-.5-9.74-4.23-13.39-14-13.41-12.62,0-25.25-.06-37.87,0-9.28,0-12.82,3.64-13.16,13-.1,2.62.43,5.36-1.24,7.73-2.37,1.66-5.1,1.23-7.72,1.23-17.6,0-35.19-.05-52.79.06-7.77.05-15.22,1.21-21,7.35a23.34,23.34,0,0,0-6.32,11.62c-.27,1.35.22,4.08-2.88,3.08a9.21,9.21,0,0,1-1.08-5.27c0-12.23-.1-24.47,0-36.7,0-3.16.31-6.31,2.61-8.83A29.67,29.67,0,0,1,92.24,43.17Q154.12,43,216,42.84c2,0,4,.45,5.9-.5,1.76-2,4.16-1.87,6.48-1.88q26.67-.08,53.36,0c2.26,0,4.74-.3,6.4,1.9Z"/><path class="cls-5" d="M288.12,42.38l-66.24,0c0-3.47-.22-7-.12-10.42.18-7,4-11.46,10.93-11.59q22.38-.43,44.78,0c6.42.12,10.25,4.28,10.8,10.72C288.59,34.81,289.19,38.62,288.12,42.38Z"/><path class="cls-3" d="M199,222c8.64,0,17.29,0,25.94,0,11.28,0,18.62,6.84,18.89,18,.26,10.64.28,21.29,0,31.93-.28,10.9-7.19,17.62-18.65,17.81q-26.17.43-52.38,0c-12.37-.23-18.78-7.25-18.8-19.57,0-10,0-20,0-29.94.05-11.08,7.06-18.15,18-18.22C181,222,190,222,199,222Z"/><path class="cls-6" d="M321.81,150q0,13.38.07,26.77c-1.48.13-3,.38-4.44.38q-118.69,0-237.38,0c-1.33,0-2.65-.15-4-.23-1.55-1.61-1.36-3.66-1.37-5.64,0-4.49.36-9-.08-13.46-1.33-13.45,9.65-26.23,25.84-27.16a40.07,40.07,0,0,1,8,.2,11,11,0,0,1,1.79.4c5.64.77,11.3.3,16.94.32,15,.08,30,.71,44.91-.11,40.39-2.21,80.79-.33,121.18-1a38,38,0,0,1,10.41.89C313.48,133.92,320.42,139.26,321.81,150Z"/><path class="cls-7" d="M109.1,132c-4.78.21-9.52,0-14.31.95-10.75,2.22-20,13.8-18.86,24.12.7,6.55.14,13.24.15,19.87l-.45.13-.47,0c-1.76-1.89-1.71-4.26-1.71-6.59q-.06-26.47,0-52.94c0-2.28-.29-4.74,1.8-6.48,1.1-5.11,2-10.17,5.61-14.45,5.86-6.87,13.35-9.46,22-9.5,20.73-.09,41.47,0,62.21,0,1.9-1.74,4.28-1.59,6.58-1.59q27.32-.06,54.61,0c2.28,0,4.68-.24,6.58,1.55,20.81,0,41.62,0,62.43.07,8.48,0,15.94,2.51,21.6,9.33,3,3.58,5,7.52,5,12.16.08,13.82,0,27.63-.08,41.45-4.9-13.38-14.82-18.21-28.63-18.09-36.08.32-72.19-.58-108.25.35-23.42.61-46.82.43-70.22.72-1.89,0-4,.82-5.63-1,2.12-1.79,4.7-1.44,7.17-1.44,16.48,0,33,.1,49.45-.12,3.27,0,8.22,2.23,8.77-4.21.72-8.25-2.05-13.28-8.14-14.4a22.17,22.17,0,0,0-4-.24c-13,0-26-.08-39,0-9.18.08-12.59,3.58-12.83,12.74C110.48,126.94,111,129.7,109.1,132Z"/><path class="cls-8" d="M75.27,111q-.06,33-.11,66c-15.65.85-16.88-.29-16.88-15.74q0-44.61,0-89.21c0-10.83,1.41-12.22,12.36-12.23,1.82,0,3.65,0,5.48,0C74.35,76.87,75.53,94,75.27,111Z"/><path class="cls-8" d="M322.6,177q-.14-54.54-.3-109.07c0-2.65-.48-5.29-.74-7.93,3.16,0,6.31-.15,9.47-.1,6,.09,8,2.13,8.06,8.17.05,17.78,0,35.57,0,53.35q0,22.68,0,45.37c0,8.61-1.56,10.24-10,10.4C326.92,177.2,324.76,177.05,322.6,177Z"/><path class="cls-9" d="M232.83,87c-10,.89-19.93.31-29.9.35-12.62.05-25.24-.2-37.87-.31,0-3.33-.06-6.65.05-10,.25-7.5,4.8-12,12.32-12q21.44-.11,42.86,0c7.34,0,11.78,4.12,12.37,11.5C232.94,80,232.78,83.51,232.83,87Z"/><path class="cls-10" d="M198.49,278.13c-8.66,0-17.31,0-26,0-5.7,0-7.41-1.76-7.44-7.48q-.08-15,0-29.95c0-5.27,2-7.44,7.16-7.48q26.7-.18,53.41,0c4.6,0,7.09,2.65,7.12,7.24.08,10.31.13,20.63,0,30.95-.07,4.77-2.3,6.69-7.31,6.72C216.46,278.17,207.47,278.13,198.49,278.13Z"/><path class="cls-11" d="M109.1,132c0-3.5-.14-7,0-10.49.23-6.71,4.71-11.38,11.34-11.44q22.47-.19,44.95,0c6.22.05,10.44,4.51,10.75,10.8.57,11.22.57,11.23-10.62,11.21q-28.22,0-56.43-.11Z"/></g></g></svg>