<svg xmlns="http://www.w3.org/2000/svg" viewBox="0 0 396 354"><defs><style>.cls-1{fill:#a46953;}.cls-2{fill:#b3abbb;}.cls-3{fill:#6d4534;}.cls-4{fill:#6d4535;}.cls-5{fill:#a56953;}.cls-6{fill:none;}</style></defs><g id="Layer_2" data-name="Layer 2"><g id="Layer_3" data-name="Layer 3"><path class="cls-1" d="M177,192c.46-2.14-1.37-3-2.49-4.09q-17.44-17.58-35-35.09c-.53-1.87.9-2.84,1.93-3.89q8.27-8.43,16.7-16.69c1.23-1.19,2.38-3.1,4.66-1.84Q182,149.6,201.2,168.82c1.09,1.09,2.09,2.32,3.66,2.79a50.72,50.72,0,0,0,10.81,2.6c10.58,1.66,17.69,8.2,23.37,16.72.62,1.88,2.27,2.92,3.56,4.21q42.12,42.18,84.28,84.31c6.24,6.24,6.22,9.65-.1,16q-11.37,11.35-22.75,22.7c-5.35,5.31-9.22,5.29-14.65-.13q-38.7-38.67-77.4-77.36c-1.3-1.31-2.77-2.45-4.17-3.66-2.7-.78-4.16-3.11-6-4.91-3.88-3.75-7.61-7.65-11.48-11.42a20.1,20.1,0,0,1-6.16-12.15C183.38,202.24,181.92,196.36,177,192Z"/><path class="cls-2" d="M162.78,130.37c-.7.25-1.59.31-2.06.79-7.08,7.21-14.67,13.91-21.23,21.63-10.26,9-19.44,19.13-29.19,28.66-7.76,7.6-10.34,7.67-18,0L56.09,145.27c-6-6.05-6.08-9.79-.13-15.75q13.32-13.35,26.65-26.68c1.17-1.17,2.8-2.09,2.85-4.06,6.86-7.37,14.14-14.31,21.27-21.4a3.36,3.36,0,0,1,2-1q15.23-15,30.44-30c6.23-6.15,9.37-6.16,15.59.06q18.9,18.93,37.79,37.87c5.56,5.58,5.54,9.44-.07,15.06q-13.49,13.49-27,27C164.37,127.44,162.73,128.36,162.78,130.37Z"/><path class="cls-2" d="M333.5,96c11.5,16.14,13.31,33.88,9,52.75-1.45,6.32-2.43,12.76-3.4,19.17-1.11,7.43-4.81,12.77-12.07,15-6.57,2-12.24-.17-17-4.83-8.63-8.5-17.13-17.11-25.72-25.65-1.19-1.19-2.55-2.22-3.84-3.32-1.85-.28-2.89-1.73-4.06-2.92-6.41-6.49-13.05-12.75-19.27-19.42.14-2-1.47-3-2.64-4.15-7.65-7.7-15.36-15.34-23-23-5.83-5.87-5.8-9.93.11-15.85Q250.34,65,269.12,46.26c5.91-5.89,9.42-5.86,15.29,0q13.38,13.24,26.8,26.47c4.57,2.45,7.46,6.76,11.16,10.17,3,2.81,5.91,5.81,8.79,8.79C332.34,92.86,333.53,94.09,333.5,96Z"/><path class="cls-3" d="M177,192a9.38,9.38,0,0,1,6.9,9c.42,11.63,6.91,19.41,15,26.59,3.22,2.86,6,6.24,9,9.39q-41.12,41.25-82.27,82.49c-3.92,3.92-8.36,3.83-12.34-.1q-12.92-12.78-25.64-25.77c-4-4.11-4-8.09.13-12.25Q132.27,236.6,177,192Z"/><path class="cls-3" d="M257.14,126.79c.59.08,1.4-.06,1.73.27,7.23,7.33,15,14.1,21.6,22.07L239,190.93c-2.89-2.76-5.82-5.47-8.65-8.29-4.55-4.53-10.07-6.75-16.37-7.54-3.27-.4-6.83-.46-9.16-3.49,6.3-.53,11.27-3.34,15.7-7.93C232.59,151.23,244.92,139.07,257.14,126.79Z"/><path class="cls-4" d="M333.5,96c-6.77-8.39-15.11-15.28-22.29-23.28,1-1,1.93-2,3-2.93,3.21-2.83,6.3-2.84,9.43.19,4,3.88,7.9,7.89,11.84,11.85,5.19,5.22,5.21,7.21.09,12.31C334.9,94.76,334.18,95.35,333.5,96Z"/><path class="cls-5" d="M108.75,76.34Q98.16,87.11,87.53,97.87a6.4,6.4,0,0,1-2.07.9C79,92.46,78.94,91.42,85.34,85c2.83-2.86,5.68-5.7,8.48-8.59C100.54,69.48,102,69.46,108.75,76.34Z"/><path class="cls-6" d="M198,353.9q-97,0-193.91.1C.67,354,0,353.33,0,349.91Q.17,177,0,4.09C0,.67.67,0,4.09,0Q198,.17,391.91,0c3.42,0,4.09.67,4.09,4.09q-.17,172.91,0,345.82c0,3.42-.67,4.1-4.09,4.09Q294.95,353.81,198,353.9Z"/></g></g></svg>