<svg xmlns="http://www.w3.org/2000/svg" viewBox="0 0 396 354"><defs><style>.cls-1{fill:none;}.cls-2{fill:#ccc3d5;}.cls-3{fill:#f7312f;}.cls-4{fill:#feaf2e;}.cls-5{fill:#212121;}.cls-6{fill:#00a5ec;}</style></defs><g id="Layer_2" data-name="Layer 2"><g id="Layer_2-2" data-name="Layer 2"><path class="cls-1" d="M198,353.9q-97,0-193.91.1C.67,354,0,353.33,0,349.91Q.17,177,0,4.09C0,.67.67,0,4.09,0Q198,.17,391.91,0c3.42,0,4.09.67,4.09,4.09q-.17,172.91,0,345.82c0,3.42-.67,4.1-4.09,4.09Q294.95,353.81,198,353.9Z"/><path class="cls-2" d="M237,80c2.52,1.44,5.27.57,7.9.67,9.23.35,18.58-1,27.65,1.66,23.88,6.9,38.8,22.42,44.55,46.67a1.49,1.49,0,0,0,1,1.09V71c2,.31,1.91,2,2.13,3.43a32.55,32.55,0,0,1,.14,4.94q0,82,0,164.07c0,2.79.59,5.75-1.45,8.2-.2,11.19-.35,22.34-4.49,33-8.69,22.5-30.69,38-54.76,38q-62.19.1-124.39,0c-29.3-.07-54.18-22.15-58.42-51.22-1-6.44-.31-12.83-.83-19.23-1.57-1.73-1.35-3.89-1.36-6q0-54,0-108c0-2.19-.35-4.55,1.6-6.28,2.84-10.24,6.31-20.19,13.23-28.55C101,89.53,115.61,81.56,133.84,80.82c6.57-.27,13.17,0,19.75-.09,1.45,0,3,.42,4.32-.65,1-1.2,2.39-1,3.73-1q35.81.6,71.6,0C234.58,79.1,236,78.89,237,80Z"/><path class="cls-3" d="M318.86,251.63c-.09-1.94-.25-3.87-.25-5.81q0-84.82,0-169.63c0-1.73.62-3.58-.58-5.2-5.68-3.53-10.15-7.85-10.05-15.21a15.59,15.59,0,0,1,30.12-5.65c2.69,6.64.45,14.9-5.79,18.54-3.15,1.84-3.71,3.91-3.69,7.11q.15,31.88,0,63.76a6.41,6.41,0,0,0,2.58,5.66,19.71,19.71,0,0,1,7.48,16.09c0,23.2,0,46.39,0,69.59C338.63,242.45,330.52,250.82,318.86,251.63Z"/><path class="cls-3" d="M76.22,132q-.07,33-.14,65.95Q76,225.12,76,252.26c-13.45-1.69-19.86-8.87-19.87-22.38,0-22.15.1-44.31-.07-66.47-.07-7.6,2.34-13.8,8.44-18.33,1.64-1.22,1.69-2.61,1.69-4.27,0-22.61-.07-45.22.07-67.82,0-2.75-1.23-3.79-3.25-5.07a15,15,0,1,1,16.11.13c-1.63,1-3.11,1.7-3.09,4.24C76.18,92.2,76.17,112.11,76.22,132Z"/><path class="cls-4" d="M237,80c-14.59,1.32-29.2.5-43.8.55-11.76,0-23.54.7-35.29-.51-8.44-3.78-12.34-10.36-10.65-18,1.64-7.36,8-11.85,16.82-11.86h67.75c6.41,0,11.27,2.72,14.26,8.4,2.74,5.22,2.24,10.37-1,15.28C243.15,77,240.18,78.64,237,80Z"/><path class="cls-5" d="M197.23,121.06c22.47,0,45-.12,67.42,0,21.51.15,38.3,13.54,42.9,33.87,5.75,25.4-14.23,51.51-40.22,51.68q-70.11.45-140.23,0c-22.21-.13-40.63-19.68-40.94-42.52-.3-22.23,18.07-41.91,40.06-42.93,1,0,2.09-.12,3.14-.12Z"/><path class="cls-5" d="M197.08,282.45c-8.08,0-16.16.08-24.24,0-9.43-.11-15.94-6.42-15.88-15.19.06-8.58,6.48-14.87,15.69-14.93q24.67-.19,49.37,0c9.06.06,15.66,6.51,15.73,15s-6.66,15-16,15.14C213.54,282.53,205.31,282.45,197.08,282.45Z"/><path class="cls-6" d="M151.79,166.39c0,4.48.19,9,0,13.45a12.11,12.11,0,0,1-11.45,11.65c-6.86.36-12.4-3.44-13.19-10.07a143,143,0,0,1-.12-29.54c.56-6.51,6.64-11,12.86-10.69a12.38,12.38,0,0,1,11.94,12.18c.18,4.34,0,8.68,0,13Z"/><path class="cls-6" d="M267.83,166.23c0,4.63.2,9.28-.05,13.9a11.84,11.84,0,0,1-11.17,11.35c-6.68.44-12.64-3.51-13.38-9.9a128.9,128.9,0,0,1,.07-30.85c.72-5.65,6.69-9.78,12.44-9.55,6.13.24,11.49,4.79,11.95,10.7.37,4.76.08,9.56.08,14.35Z"/></g></g></svg>